<mxfile host="65bd71144e">
    <diagram name="miniRT Parsing Flow with Links" id="parsing-flow-linked">
        <mxGraphModel dx="645" dy="975" grid="0" gridSize="10" guides="1" tooltips="1" connect="1" arrows="1" fold="1" page="0" pageScale="1" pageWidth="1169" pageHeight="827" math="0" shadow="0">
            <root>
                <mxCell id="0"/>
                <mxCell id="1" parent="0"/>
                <mxCell id="title" value="miniRT Parsing Flow with Source Links" style="text;html=1;strokeColor=none;fillColor=none;align=center;verticalAlign=middle;whiteSpace=wrap;rounded=0;fontSize=24;fontStyle=1;" parent="1" vertex="1">
                    <mxGeometry x="400" y="20" width="400" height="40" as="geometry"/>
                </mxCell>
                <UserObject label="Start: parse_scene()" link="file:///Users/flo/Desktop/miniRT/srcs/parsing/parser.c" id="start">
                    <mxCell style="ellipse;whiteSpace=wrap;html=1;fillColor=#d5e8d4;strokeColor=#82b366;fontSize=12;fontStyle=1;fontColor=#000000;" parent="1" vertex="1">
                        <mxGeometry x="500" y="80" width="120" height="60" as="geometry"/>
                    </mxCell>
                </UserObject>
                <mxCell id="open_file" value="Open File" style="rounded=1;whiteSpace=wrap;html=1;fillColor=#dae8fc;strokeColor=#6c8ebf;fontSize=12;fontColor=#000000;" parent="1" vertex="1">
                    <mxGeometry x="480" y="160" width="160" height="40" as="geometry"/>
                </mxCell>
                <mxCell id="file_check" value="File Opened?" style="rhombus;whiteSpace=wrap;html=1;fillColor=#fff2cc;strokeColor=#d6b656;fontSize=12;fontColor=#000000;" parent="1" vertex="1">
                    <mxGeometry x="490" y="220" width="140" height="80" as="geometry"/>
                </mxCell>
                <mxCell id="file_error" value="Error: Could not open file" style="rounded=1;whiteSpace=wrap;html=1;fillColor=#f8cecc;strokeColor=#b85450;fontSize=12;fontColor=#ffffff;" parent="1" vertex="1">
                    <mxGeometry x="680" y="240" width="160" height="40" as="geometry"/>
                </mxCell>
                <mxCell id="read_line" value="Read Line with get_next_line()" style="rounded=1;whiteSpace=wrap;html=1;fillColor=#dae8fc;strokeColor=#6c8ebf;fontSize=12;fontColor=#000000;" parent="1" vertex="1">
                    <mxGeometry x="480" y="320" width="160" height="40" as="geometry"/>
                </mxCell>
                <mxCell id="line_check" value="Line Exists?" style="rhombus;whiteSpace=wrap;html=1;fillColor=#fff2cc;strokeColor=#d6b656;fontSize=12;fontColor=#000000;" parent="1" vertex="1">
                    <mxGeometry x="490" y="380" width="140" height="80" as="geometry"/>
                </mxCell>
                <mxCell id="close_file" value="Close File" style="rounded=1;whiteSpace=wrap;html=1;fillColor=#dae8fc;strokeColor=#6c8ebf;fontSize=12;fontColor=#000000;" parent="1" vertex="1">
                    <mxGeometry x="830" y="400" width="160" height="40" as="geometry"/>
                </mxCell>
                <UserObject label="process_line()" link="file://srcs/parsing/parser.c" id="process_line">
                    <mxCell style="rounded=1;whiteSpace=wrap;html=1;fillColor=#e1d5e7;strokeColor=#9673a6;fontSize=12;fontColor=#000000;" parent="1" vertex="1">
                        <mxGeometry x="480" y="480" width="160" height="40" as="geometry"/>
                    </mxCell>
                </UserObject>
                <mxCell id="comment_check" value="Is Comment/Empty?" style="rhombus;whiteSpace=wrap;html=1;fillColor=#fff2cc;strokeColor=#d6b656;fontSize=12;fontColor=#000000;" parent="1" vertex="1">
                    <mxGeometry x="490" y="540" width="140" height="80" as="geometry"/>
                </mxCell>
                <mxCell id="skip_line" value="Free Line, Continue" style="rounded=1;whiteSpace=wrap;html=1;fillColor=#f8cecc;strokeColor=#b85450;fontSize=12;fontColor=#ffffff;" parent="1" vertex="1">
                    <mxGeometry x="830" y="560" width="160" height="40" as="geometry"/>
                </mxCell>
                <mxCell id="parse_line" value="parse_line()" style="rounded=1;whiteSpace=wrap;html=1;fillColor=#e1d5e7;strokeColor=#9673a6;fontSize=12;fontColor=#000000;" parent="1" vertex="1">
                    <mxGeometry x="480" y="640" width="160" height="40" as="geometry"/>
                </mxCell>
                <mxCell id="replace_tabs" value="Replace Tabs with Spaces" style="rounded=1;whiteSpace=wrap;html=1;fillColor=#d5e8d4;strokeColor=#82b366;fontSize=12;fontColor=#000000;" parent="1" vertex="1">
                    <mxGeometry x="480" y="700" width="160" height="40" as="geometry"/>
                </mxCell>
                <mxCell id="split_tokens" value="Split Line into Tokens" style="rounded=1;whiteSpace=wrap;html=1;fillColor=#d5e8d4;strokeColor=#82b366;fontSize=12;fontColor=#000000;" parent="1" vertex="1">
                    <mxGeometry x="480" y="760" width="160" height="40" as="geometry"/>
                </mxCell>
                <mxCell id="token_check" value="Tokens Valid?" style="rhombus;whiteSpace=wrap;html=1;fillColor=#fff2cc;strokeColor=#d6b656;fontSize=12;fontColor=#000000;" parent="1" vertex="1">
                    <mxGeometry x="490" y="820" width="140" height="80" as="geometry"/>
                </mxCell>
                <mxCell id="free_tokens" value="Free Tokens, Continue" style="rounded=1;whiteSpace=wrap;html=1;fillColor=#f8cecc;strokeColor=#b85450;fontSize=12;fontColor=#ffffff;" parent="1" vertex="1">
                    <mxGeometry x="680" y="840" width="160" height="40" as="geometry"/>
                </mxCell>
                <mxCell id="count_tokens" value="Count Tokens" style="rounded=1;whiteSpace=wrap;html=1;fillColor=#d5e8d4;strokeColor=#82b366;fontSize=12;fontColor=#000000;" parent="1" vertex="1">
                    <mxGeometry x="480" y="920" width="160" height="40" as="geometry"/>
                </mxCell>
                <mxCell id="dispatch" value="dispatch_parse()" style="rounded=1;whiteSpace=wrap;html=1;fillColor=#e1d5e7;strokeColor=#9673a6;fontSize=12;fontStyle=1;fontColor=#000000;" parent="1" vertex="1">
                    <mxGeometry x="480" y="980" width="160" height="40" as="geometry"/>
                </mxCell>
                <mxCell id="token_type" value="Token Type?" style="rhombus;whiteSpace=wrap;html=1;fillColor=#fff2cc;strokeColor=#d6b656;fontSize=12;fontColor=#000000;" parent="1" vertex="1">
                    <mxGeometry x="490" y="1040" width="140" height="80" as="geometry"/>
                </mxCell>
                <UserObject label="parse_ambient()" link="parsing/scene/parse_scene_elements.c" id="parse_ambient">
                    <mxCell style="rounded=1;whiteSpace=wrap;html=1;fillColor=#ffe6cc;strokeColor=#d79b00;fontSize=12;fontColor=#000000;" parent="1" vertex="1">
                        <mxGeometry x="180" y="870" width="120" height="40" as="geometry"/>
                    </mxCell>
                </UserObject>
                <UserObject label="parse_camera()" link="parsing/scene/parse_scene_elements.c" id="parse_camera">
                    <mxCell style="rounded=1;whiteSpace=wrap;html=1;fillColor=#ffe6cc;strokeColor=#d79b00;fontSize=12;fontColor=#000000;" parent="1" vertex="1">
                        <mxGeometry x="180" y="930" width="120" height="40" as="geometry"/>
                    </mxCell>
                </UserObject>
                <UserObject label="parse_light()" link="parsing/scene/parse_scene_elements.c" id="parse_light">
                    <mxCell style="rounded=1;whiteSpace=wrap;html=1;fillColor=#ffe6cc;strokeColor=#d79b00;fontSize=12;fontColor=#000000;" parent="1" vertex="1">
                        <mxGeometry x="180" y="990" width="120" height="40" as="geometry"/>
                    </mxCell>
                </UserObject>
                <UserObject label="parse_sphere()" link="parsing/primitives/parse_primitives.c" id="parse_sphere">
                    <mxCell style="rounded=1;whiteSpace=wrap;html=1;fillColor=#ffe6cc;strokeColor=#d79b00;fontSize=12;fontColor=#000000;" parent="1" vertex="1">
                        <mxGeometry x="180" y="1050" width="120" height="40" as="geometry"/>
                    </mxCell>
                </UserObject>
                <UserObject label="parse_plane()" link="parsing/primitives/parse_primitives.c" id="parse_plane">
                    <mxCell style="rounded=1;whiteSpace=wrap;html=1;fillColor=#ffe6cc;strokeColor=#d79b00;fontSize=12;fontColor=#000000;" parent="1" vertex="1">
                        <mxGeometry x="180" y="1110" width="120" height="40" as="geometry"/>
                    </mxCell>
                </UserObject>
                <mxCell id="parse_cylinder" value="parse_cylinder()" style="rounded=1;whiteSpace=wrap;html=1;fillColor=#ffe6cc;strokeColor=#d79b00;fontSize=12;fontColor=#000000;" parent="1" vertex="1">
                    <mxGeometry x="180" y="1170" width="120" height="40" as="geometry"/>
                </mxCell>
                <mxCell id="parse_cone" value="parse_cone()" style="rounded=1;whiteSpace=wrap;html=1;fillColor=#ffe6cc;strokeColor=#d79b00;fontSize=12;fontColor=#000000;" parent="1" vertex="1">
                    <mxGeometry x="180" y="1230" width="120" height="40" as="geometry"/>
                </mxCell>
                <mxCell id="invalid_token" value="Error: Invalid Line" style="rounded=1;whiteSpace=wrap;html=1;fillColor=#f8cecc;strokeColor=#b85450;fontSize=12;fontColor=#ffffff;" parent="1" vertex="1">
                    <mxGeometry x="680" y="1060" width="160" height="40" as="geometry"/>
                </mxCell>
                <mxCell id="free_after_parse" value="Free Tokens" style="rounded=1;whiteSpace=wrap;html=1;fillColor=#d5e8d4;strokeColor=#82b366;fontSize=12;fontColor=#000000;" parent="1" vertex="1">
                    <mxGeometry x="480" y="1170" width="160" height="40" as="geometry"/>
                </mxCell>
                <mxCell id="parse_success" value="Parse Success?" style="rhombus;whiteSpace=wrap;html=1;fillColor=#fff2cc;strokeColor=#d6b656;fontSize=12;fontColor=#000000;" parent="1" vertex="1">
                    <mxGeometry x="490" y="1271" width="140" height="80" as="geometry"/>
                </mxCell>
                <mxCell id="parse_error" value="Error: Parsing Failed" style="rounded=1;whiteSpace=wrap;html=1;fillColor=#f8cecc;strokeColor=#b85450;fontSize=12;fontColor=#ffffff;" parent="1" vertex="1">
                    <mxGeometry x="680" y="1290" width="160" height="40" as="geometry"/>
                </mxCell>
                <mxCell id="continue" value="Continue to Next Line" style="rounded=1;whiteSpace=wrap;html=1;fillColor=#d5e8d4;strokeColor=#82b366;fontSize=12;fontColor=#000000;" parent="1" vertex="1">
                    <mxGeometry x="480" y="1370" width="160" height="40" as="geometry"/>
                </mxCell>
                <mxCell id="validate_scene" value="validate_scene()" style="rounded=1;whiteSpace=wrap;html=1;fillColor=#e1d5e7;strokeColor=#9673a6;fontSize=12;fontStyle=1;fontColor=#000000;" parent="1" vertex="1">
                    <mxGeometry x="830" y="400" width="160" height="40" as="geometry"/>
                </mxCell>
                <mxCell id="required_check" value="Required Elements Present?" style="rhombus;whiteSpace=wrap;html=1;fillColor=#fff2cc;strokeColor=#d6b656;fontSize=12;fontColor=#000000;" parent="1" vertex="1">
                    <mxGeometry x="840" y="460" width="140" height="80" as="geometry"/>
                </mxCell>
                <mxCell id="missing_elements" value="Error: Missing Required Elements" style="rounded=1;whiteSpace=wrap;html=1;fillColor=#f8cecc;strokeColor=#b85450;fontSize=12;fontColor=#ffffff;" parent="1" vertex="1">
                    <mxGeometry x="1030" y="480" width="160" height="40" as="geometry"/>
                </mxCell>
                <mxCell id="success" value="Success: Scene Parsed" style="ellipse;whiteSpace=wrap;html=1;fillColor=#d5e8d4;strokeColor=#82b366;fontSize=12;fontStyle=1;fontColor=#000000;" parent="1" vertex="1">
                    <mxGeometry x="1080" y="550" width="160" height="60" as="geometry"/>
                </mxCell>
                <mxCell id="start_path" value="srcs/parsing/parser.c" style="text;html=1;strokeColor=none;fillColor=none;align=center;verticalAlign=middle;whiteSpace=wrap;rounded=0;fontSize=10;fontColor=#666666;" parent="1" vertex="1">
                    <mxGeometry x="500" y="150" width="120" height="20" as="geometry"/>
                </mxCell>
                <mxCell id="parse_line_path" value="srcs/parsing/parser.c" style="text;html=1;strokeColor=none;fillColor=none;align=center;verticalAlign=middle;whiteSpace=wrap;rounded=0;fontSize=10;fontColor=#666666;" parent="1" vertex="1">
                    <mxGeometry x="480" y="690" width="160" height="20" as="geometry"/>
                </mxCell>
                <mxCell id="dispatch_path" value="srcs/parsing/parser.c" style="text;html=1;strokeColor=none;fillColor=none;align=center;verticalAlign=middle;whiteSpace=wrap;rounded=0;fontSize=10;fontColor=#666666;" parent="1" vertex="1">
                    <mxGeometry x="480" y="1030" width="160" height="20" as="geometry"/>
                </mxCell>
                <mxCell id="validate_scene_path" value="srcs/parsing/parser.c" style="text;html=1;strokeColor=none;fillColor=none;align=center;verticalAlign=middle;whiteSpace=wrap;rounded=0;fontSize=10;fontColor=#666666;" parent="1" vertex="1">
                    <mxGeometry x="830" y="450" width="160" height="20" as="geometry"/>
                </mxCell>
                <mxCell id="instructions" value="To add clickable links:&#10;1. Select a function block&#10;2. Right-click → Edit Link (Ctrl+K)&#10;3. Enter: file:///Users/flo/Desktop/miniRT/[file_path]&#10;4. Click OK" style="text;html=1;strokeColor=none;fillColor=#f0f0f0;align=left;verticalAlign=top;whiteSpace=wrap;rounded=1;fontSize=10;fontColor=#333333;" parent="1" vertex="1">
                    <mxGeometry x="900" y="80" width="250" height="80" as="geometry"/>
                </mxCell>
                <mxCell id="edge1" parent="1" source="start" target="open_file" edge="1">
                    <mxGeometry relative="1" as="geometry"/>
                </mxCell>
                <mxCell id="edge2" parent="1" source="open_file" target="file_check" edge="1">
                    <mxGeometry relative="1" as="geometry"/>
                </mxCell>
                <mxCell id="edge3" parent="1" source="file_check" target="file_error" edge="1">
                    <mxGeometry relative="1" as="geometry">
                        <Array as="points">
                            <mxPoint x="660" y="260"/>
                        </Array>
                    </mxGeometry>
                </mxCell>
                <mxCell id="edge4" parent="1" source="file_check" target="read_line" edge="1">
                    <mxGeometry relative="1" as="geometry">
                        <Array as="points">
                            <mxPoint x="560" y="300"/>
                        </Array>
                    </mxGeometry>
                </mxCell>
                <mxCell id="edge5" parent="1" source="read_line" target="line_check" edge="1">
                    <mxGeometry relative="1" as="geometry"/>
                </mxCell>
                <mxCell id="edge6" parent="1" source="line_check" target="close_file" edge="1">
                    <mxGeometry relative="1" as="geometry">
                        <Array as="points">
                            <mxPoint x="660" y="420"/>
                        </Array>
                    </mxGeometry>
                </mxCell>
                <mxCell id="edge7" parent="1" source="line_check" target="process_line" edge="1">
                    <mxGeometry relative="1" as="geometry">
                        <Array as="points">
                            <mxPoint x="560" y="460"/>
                        </Array>
                    </mxGeometry>
                </mxCell>
                <mxCell id="edge8" parent="1" source="process_line" target="comment_check" edge="1">
                    <mxGeometry relative="1" as="geometry"/>
                </mxCell>
                <mxCell id="edge9" parent="1" source="comment_check" target="skip_line" edge="1">
                    <mxGeometry relative="1" as="geometry">
                        <Array as="points">
                            <mxPoint x="660" y="580"/>
                        </Array>
                    </mxGeometry>
                </mxCell>
                <mxCell id="edge10" parent="1" source="comment_check" target="parse_line" edge="1">
                    <mxGeometry relative="1" as="geometry">
                        <Array as="points">
                            <mxPoint x="560" y="620"/>
                        </Array>
                    </mxGeometry>
                </mxCell>
                <mxCell id="edge11" parent="1" source="parse_line" target="replace_tabs" edge="1">
                    <mxGeometry relative="1" as="geometry"/>
                </mxCell>
                <mxCell id="edge12" parent="1" source="replace_tabs" target="split_tokens" edge="1">
                    <mxGeometry relative="1" as="geometry"/>
                </mxCell>
                <mxCell id="edge13" parent="1" source="split_tokens" target="token_check" edge="1">
                    <mxGeometry relative="1" as="geometry"/>
                </mxCell>
                <mxCell id="edge14" parent="1" source="token_check" target="free_tokens" edge="1">
                    <mxGeometry relative="1" as="geometry">
                        <Array as="points">
                            <mxPoint x="660" y="860"/>
                        </Array>
                    </mxGeometry>
                </mxCell>
                <mxCell id="edge15" parent="1" source="token_check" target="count_tokens" edge="1">
                    <mxGeometry relative="1" as="geometry">
                        <Array as="points">
                            <mxPoint x="560" y="900"/>
                        </Array>
                    </mxGeometry>
                </mxCell>
                <mxCell id="edge16" parent="1" source="count_tokens" target="dispatch" edge="1">
                    <mxGeometry relative="1" as="geometry"/>
                </mxCell>
                <mxCell id="edge17" parent="1" source="dispatch" target="token_type" edge="1">
                    <mxGeometry relative="1" as="geometry"/>
                </mxCell>
                <mxCell id="edge18" style="entryX=1;entryY=0.5;entryDx=0;entryDy=0;" parent="1" target="parse_ambient" edge="1">
                    <mxGeometry relative="1" as="geometry">
                        <Array as="points"/>
                        <mxPoint x="490" y="1080" as="sourcePoint"/>
                        <mxPoint x="319.9999999999998" y="890" as="targetPoint"/>
                    </mxGeometry>
                </mxCell>
                <mxCell id="edge19" style="exitX=0;exitY=0.5;exitDx=0;exitDy=0;entryX=1;entryY=0.5;entryDx=0;entryDy=0;" parent="1" source="token_type" target="parse_camera" edge="1">
                    <mxGeometry relative="1" as="geometry">
                        <Array as="points"/>
                    </mxGeometry>
                </mxCell>
                <mxCell id="edge20" style="exitX=0;exitY=0.5;exitDx=0;exitDy=0;entryX=0;entryY=0.75;entryDx=0;entryDy=0;" parent="1" source="token_type" edge="1">
                    <mxGeometry relative="1" as="geometry">
                        <Array as="points"/>
                        <mxPoint x="299.9999999999998" y="1015" as="targetPoint"/>
                    </mxGeometry>
                </mxCell>
                <mxCell id="edge21" style="exitX=0;exitY=0.5;exitDx=0;exitDy=0;" parent="1" source="token_type" target="parse_sphere" edge="1">
                    <mxGeometry relative="1" as="geometry">
                        <Array as="points"/>
                    </mxGeometry>
                </mxCell>
                <mxCell id="edge22" style="exitX=0;exitY=0.5;exitDx=0;exitDy=0;entryX=1;entryY=0.5;entryDx=0;entryDy=0;" parent="1" source="token_type" target="parse_plane" edge="1">
                    <mxGeometry relative="1" as="geometry">
                        <Array as="points"/>
                    </mxGeometry>
                </mxCell>
                <mxCell id="edge23" style="exitX=0;exitY=0.5;exitDx=0;exitDy=0;entryX=1;entryY=0.5;entryDx=0;entryDy=0;" parent="1" source="token_type" target="parse_cylinder" edge="1">
                    <mxGeometry relative="1" as="geometry">
                        <Array as="points"/>
                    </mxGeometry>
                </mxCell>
                <mxCell id="edge24" style="exitX=0;exitY=0.5;exitDx=0;exitDy=0;entryX=1;entryY=0.5;entryDx=0;entryDy=0;" parent="1" source="token_type" target="parse_cone" edge="1">
                    <mxGeometry relative="1" as="geometry">
                        <Array as="points"/>
                    </mxGeometry>
                </mxCell>
                <mxCell id="edge25" parent="1" source="token_type" target="invalid_token" edge="1">
                    <mxGeometry relative="1" as="geometry">
                        <Array as="points">
                            <mxPoint x="660" y="1080"/>
                        </Array>
                    </mxGeometry>
                </mxCell>
                <mxCell id="edge26" parent="1" source="parse_ambient" target="free_after_parse" edge="1">
                    <mxGeometry relative="1" as="geometry">
                        <Array as="points">
                            <mxPoint x="260" y="1160"/>
                            <mxPoint x="560" y="1160"/>
                        </Array>
                    </mxGeometry>
                </mxCell>
                <mxCell id="edge27" parent="1" source="parse_camera" target="free_after_parse" edge="1">
                    <mxGeometry relative="1" as="geometry">
                        <Array as="points">
                            <mxPoint x="260" y="1160"/>
                            <mxPoint x="560" y="1160"/>
                        </Array>
                    </mxGeometry>
                </mxCell>
                <mxCell id="edge28" parent="1" source="parse_light" target="free_after_parse" edge="1">
                    <mxGeometry relative="1" as="geometry">
                        <Array as="points">
                            <mxPoint x="260" y="1160"/>
                            <mxPoint x="560" y="1160"/>
                        </Array>
                    </mxGeometry>
                </mxCell>
                <mxCell id="edge29" parent="1" source="parse_sphere" target="free_after_parse" edge="1">
                    <mxGeometry relative="1" as="geometry">
                        <Array as="points">
                            <mxPoint x="260" y="1160"/>
                            <mxPoint x="560" y="1160"/>
                        </Array>
                    </mxGeometry>
                </mxCell>
                <mxCell id="edge30" parent="1" source="parse_plane" target="free_after_parse" edge="1">
                    <mxGeometry relative="1" as="geometry">
                        <Array as="points">
                            <mxPoint x="260" y="1160"/>
                            <mxPoint x="560" y="1160"/>
                        </Array>
                    </mxGeometry>
                </mxCell>
                <mxCell id="edge31" parent="1" source="parse_cylinder" target="free_after_parse" edge="1">
                    <mxGeometry relative="1" as="geometry">
                        <Array as="points">
                            <mxPoint x="260" y="1160"/>
                            <mxPoint x="560" y="1160"/>
                        </Array>
                    </mxGeometry>
                </mxCell>
                <mxCell id="edge32" parent="1" source="parse_cone" target="free_after_parse" edge="1">
                    <mxGeometry relative="1" as="geometry">
                        <Array as="points">
                            <mxPoint x="260" y="1160"/>
                            <mxPoint x="560" y="1160"/>
                        </Array>
                    </mxGeometry>
                </mxCell>
                <mxCell id="edge33" parent="1" source="invalid_token" target="free_after_parse" edge="1">
                    <mxGeometry relative="1" as="geometry">
                        <Array as="points">
                            <mxPoint x="760" y="1160"/>
                            <mxPoint x="560" y="1160"/>
                        </Array>
                    </mxGeometry>
                </mxCell>
                <mxCell id="edge34" parent="1" target="parse_success" edge="1">
                    <mxGeometry relative="1" as="geometry">
                        <mxPoint x="560" y="1280" as="sourcePoint"/>
                    </mxGeometry>
                </mxCell>
                <mxCell id="edge35" parent="1" source="parse_success" target="parse_error" edge="1">
                    <mxGeometry relative="1" as="geometry">
                        <Array as="points">
                            <mxPoint x="660" y="1310"/>
                        </Array>
                    </mxGeometry>
                </mxCell>
                <mxCell id="edge36" parent="1" source="parse_success" target="continue" edge="1">
                    <mxGeometry relative="1" as="geometry">
                        <Array as="points">
                            <mxPoint x="560" y="1350"/>
                        </Array>
                    </mxGeometry>
                </mxCell>
                <mxCell id="edge37" parent="1" source="continue" target="read_line" edge="1">
                    <mxGeometry relative="1" as="geometry">
                        <Array as="points">
                            <mxPoint x="120" y="1390"/>
                            <mxPoint x="120" y="340"/>
                        </Array>
                    </mxGeometry>
                </mxCell>
                <mxCell id="edge38" parent="1" source="skip_line" target="read_line" edge="1">
                    <mxGeometry relative="1" as="geometry">
                        <Array as="points">
                            <mxPoint x="760" y="580"/>
                            <mxPoint x="760" y="340"/>
                        </Array>
                    </mxGeometry>
                </mxCell>
                <mxCell id="edge39" parent="1" source="free_tokens" target="read_line" edge="1">
                    <mxGeometry relative="1" as="geometry">
                        <Array as="points">
                            <mxPoint x="760" y="860"/>
                            <mxPoint x="760" y="340"/>
                        </Array>
                    </mxGeometry>
                </mxCell>
                <mxCell id="edge40" parent="1" source="close_file" target="validate_scene" edge="1">
                    <mxGeometry relative="1" as="geometry"/>
                </mxCell>
                <mxCell id="edge41" parent="1" source="validate_scene" target="required_check" edge="1">
                    <mxGeometry relative="1" as="geometry"/>
                </mxCell>
                <mxCell id="edge42" parent="1" source="required_check" target="missing_elements" edge="1">
                    <mxGeometry relative="1" as="geometry">
                        <Array as="points">
                            <mxPoint x="1010" y="500"/>
                        </Array>
                    </mxGeometry>
                </mxCell>
                <mxCell id="edge43" parent="1" source="required_check" target="success" edge="1">
                    <mxGeometry relative="1" as="geometry">
                        <Array as="points">
                            <mxPoint x="910" y="540"/>
                        </Array>
                    </mxGeometry>
                </mxCell>
            </root>
        </mxGraphModel>
    </diagram>
</mxfile>
